<?xml version="1.0" encoding="UTF-8" standalone="no"?>
<svg width="220px" height="30px" viewBox="0 0 220 30" version="1.1" xmlns="http://www.w3.org/2000/svg" xmlns:xlink="http://www.w3.org/1999/xlink" xmlns:sketch="http://www.bohemiancoding.com/sketch/ns">
    <title>logo-white</title>
    <description>Created with Sketch (http://www.bohemiancoding.com/sketch)</description>
    <defs></defs>
    <g id="Page-1" stroke="none" stroke-width="1" fill="none" fill-rule="evenodd" sketch:type="MSPage">
        <g id="Slogan" sketch:type="MSLayerGroup" fill="#FFFFFF">
            <g id="Group" sketch:type="MSShapeGroup">
                <path d="M69.3057516,23.4160976 L71.3288889,23.4160976 C72.348366,23.4160976 73.0737908,23.9509756 73.0737908,24.9 C73.0737908,25.434878 72.8178431,25.8965854 72.3886275,26.1314634 L72.3886275,26.1482927 C73.009085,26.3334146 73.3031373,26.9173171 73.3031373,27.5012195 C73.3031373,28.6521951 72.395098,29.1709756 71.3526144,29.1709756 L69.3057516,29.1709756 L69.3057516,23.4160976 L69.3057516,23.4160976 L69.3057516,23.4160976 L69.3057516,23.4160976 Z M71.3288889,25.7670732 C71.7746405,25.7670732 72.0298693,25.4429268 72.0298693,25.0295122 C72.0298693,24.6160976 71.7904575,24.3160976 71.3130719,24.3160976 L70.3331373,24.3160976 L70.3331373,25.7670732 L71.3288889,25.7670732 L71.3288889,25.7670732 L71.3288889,25.7670732 L71.3288889,25.7670732 Z M71.4324183,28.2709756 C71.9579739,28.2709756 72.2527451,27.9226829 72.2527451,27.4360976 C72.2527451,26.957561 71.9500654,26.6092683 71.4324183,26.6092683 L70.3331373,26.6092683 L70.3331373,28.2709756 L71.4324183,28.2709756 L71.4324183,28.2709756 Z" id="Fill-1"></path>
                <path d="M75.1350327,23.4168293 L75.1350327,29.1709756 L78.6471242,29.1709756 L78.6471242,28.2709756 L76.1616993,28.2709756 L76.1616993,26.7234146 L78.0654902,26.7234146 L78.0654902,25.8234146 L76.1616993,25.8234146 L76.1616993,24.3153659 L78.5184314,24.3153659 L78.5184314,23.4168293 L75.1350327,23.4168293" id="Fill-2"></path>
                <path d="M84.1018301,23.4168293 L84.1018301,25.8563415 L81.5135948,25.8563415 L81.5135948,23.4168293 L80.4862092,23.4168293 L80.4862092,29.1709756 L81.5135948,29.1709756 L81.5135948,26.754878 L84.1018301,26.754878 L84.1018301,29.1709756 L85.1292157,29.1709756 L85.1292157,23.4168293 L84.1018301,23.4168293" id="Fill-3"></path>
                <path d="M87.2465359,23.4168293 L88.2739216,23.4168293 L88.2739216,29.1709756 L87.2465359,29.1709756 L87.2465359,29.1709756 L87.2465359,23.4168293 L87.2465359,23.4168293 Z" id="Fill-4"></path>
                <path d="M90.4624183,23.4160976 L91.4898039,23.4160976 L93.6315686,26.7402439 C93.8472549,27.0717073 94.1017647,27.6307317 94.1017647,27.6307317 L94.1175817,27.6307317 C94.1175817,27.6307317 94.0615033,27.0797561 94.0615033,26.7402439 L94.0615033,23.4160976 L95.0816993,23.4160976 L95.0816993,29.1709756 L94.0615033,29.1709756 L91.9190196,25.8563415 C91.7054902,25.5241463 91.4502614,24.9643902 91.4502614,24.9643902 L91.4344444,24.9643902 C91.4344444,24.9643902 91.4898039,25.5153659 91.4898039,25.8563415 L91.4898039,29.1709756 L90.4624183,29.1709756 L90.4624183,23.4160976" id="Fill-5"></path>
                <path d="M97.2816993,23.4160976 L99.2092157,23.4160976 C100.95268,23.4160976 102.092222,24.4697561 102.092222,26.2858537 C102.092222,28.1012195 100.95268,29.1709756 99.2092157,29.1709756 L97.2816993,29.1709756 L97.2816993,23.4160976 L97.2816993,23.4160976 L97.2816993,23.4160976 L97.2816993,23.4160976 Z M99.1538562,28.2709756 C100.300588,28.2709756 101.032484,27.582439 101.032484,26.2858537 C101.032484,25.0053659 100.284771,24.3160976 99.1538562,24.3160976 L98.309085,24.3160976 L98.309085,28.2709756 L99.1538562,28.2709756 L99.1538562,28.2709756 Z" id="Fill-6"></path>
                <path d="M105.531699,23.4168293 L105.531699,24.3153659 L107.386601,24.3153659 L107.386601,29.1709756 L108.414706,29.1709756 L108.414706,24.3153659 L110.271046,24.3153659 L110.271046,23.4168293 L105.531699,23.4168293" id="Fill-7"></path>
                <path d="M115.327451,23.4168293 L115.327451,25.8563415 L112.738497,25.8563415 L112.738497,23.4168293 L111.71183,23.4168293 L111.71183,29.1709756 L112.738497,29.1709756 L112.738497,26.754878 L115.327451,26.754878 L115.327451,29.1709756 L116.353399,29.1709756 L116.353399,23.4168293 L115.327451,23.4168293" id="Fill-8"></path>
                <path d="M118.590784,23.4168293 L118.590784,29.1709756 L122.102876,29.1709756 L122.102876,28.2709756 L119.61817,28.2709756 L119.61817,26.7234146 L121.521242,26.7234146 L121.521242,25.8234146 L119.61817,25.8234146 L119.61817,24.3153659 L121.975621,24.3153659 L121.975621,23.4168293 L118.590784,23.4168293" id="Fill-9"></path>
                <path d="M126.697712,23.4160976 L128.720131,23.4160976 C129.739608,23.4160976 130.465033,23.9509756 130.465033,24.9 C130.465033,25.434878 130.209804,25.8965854 129.779869,26.1314634 L129.779869,26.1482927 C130.401046,26.3334146 130.695817,26.9173171 130.695817,27.5012195 C130.695817,28.6521951 129.787778,29.1709756 128.743856,29.1709756 L126.697712,29.1709756 L126.697712,23.4160976 L126.697712,23.4160976 L126.697712,23.4160976 L126.697712,23.4160976 Z M128.720131,25.7670732 C129.166601,25.7670732 129.421111,25.4429268 129.421111,25.0295122 C129.421111,24.6160976 129.182418,24.3160976 128.704314,24.3160976 L127.724379,24.3160976 L127.724379,25.7670732 L128.720131,25.7670732 L128.720131,25.7670732 L128.720131,25.7670732 L128.720131,25.7670732 Z M128.82366,28.2709756 C129.349216,28.2709756 129.643987,27.9226829 129.643987,27.4360976 C129.643987,26.957561 129.341307,26.6092683 128.82366,26.6092683 L127.724379,26.6092683 L127.724379,28.2709756 L128.82366,28.2709756 L128.82366,28.2709756 Z" id="Fill-10"></path>
                <path d="M132.486732,23.4168293 L132.486732,29.1709756 L135.998824,29.1709756 L135.998824,28.2709756 L133.514118,28.2709756 L133.514118,26.7234146 L135.41719,26.7234146 L135.41719,25.8234146 L133.514118,25.8234146 L133.514118,24.3153659 L135.871569,24.3153659 L135.871569,23.4168293 L132.486732,23.4168293" id="Fill-11"></path>
                <path d="M138.018366,27.6958537 C138.018366,27.6958537 138.631634,28.3039024 139.428235,28.3039024 C139.858889,28.3039024 140.249281,28.0770732 140.249281,27.6065854 C140.249281,26.5770732 137.581242,26.7563415 137.581242,24.9885366 C137.581242,24.0321951 138.392941,23.3187805 139.475686,23.3187805 C140.590065,23.3187805 141.163791,23.934878 141.163791,23.934878 L140.718758,24.7858537 C140.718758,24.7858537 140.177386,24.2831707 139.468497,24.2831707 C138.990392,24.2831707 138.615817,24.5678049 138.615817,24.972439 C138.615817,25.9939024 141.276667,25.7429268 141.276667,27.582439 C141.276667,28.4985366 140.590065,29.267561 139.412418,29.267561 C138.153529,29.267561 137.461895,28.482439 137.461895,28.482439 L138.018366,27.6958537" id="Fill-12"></path>
                <path d="M142.493856,23.4168293 L142.493856,24.3153659 L144.350196,24.3153659 L144.350196,29.1709756 L145.376863,29.1709756 L145.376863,24.3153659 L147.233203,24.3153659 L147.233203,23.4168293 L142.493856,23.4168293" id="Fill-13"></path>
                <path d="M150.759673,27.6958537 C150.759673,27.6958537 151.372941,28.3039024 152.168824,28.3039024 C152.599477,28.3039024 152.989869,28.0770732 152.989869,27.6065854 C152.989869,26.5770732 150.32183,26.7563415 150.32183,24.9885366 C150.32183,24.0321951 151.134248,23.3187805 152.216993,23.3187805 C153.332092,23.3187805 153.905817,23.934878 153.905817,23.934878 L153.459346,24.7858537 C153.459346,24.7858537 152.917974,24.2831707 152.209085,24.2831707 C151.731699,24.2831707 151.357124,24.5678049 151.357124,24.972439 C151.357124,25.9939024 154.017255,25.7429268 154.017255,27.582439 C154.017255,28.4985366 153.332092,29.267561 152.154444,29.267561 C150.895556,29.267561 150.202484,28.482439 150.202484,28.482439 L150.759673,27.6958537" id="Fill-14"></path>
                <path d="M155.074837,23.4168293 L155.074837,24.3153659 L156.931176,24.3153659 L156.931176,29.1709756 L157.959281,29.1709756 L157.959281,24.3153659 L159.814183,24.3153659 L159.814183,23.4168293 L155.074837,23.4168293" id="Fill-15"></path>
                <path d="M163.516797,28.3119512 C162.481503,28.3119512 161.653987,27.4360976 161.653987,26.2529268 C161.653987,25.1180488 162.481503,24.275122 163.516797,24.275122 C164.55281,24.275122 165.381046,25.1180488 165.381046,26.2529268 C165.381046,27.4360976 164.55281,28.3119512 163.516797,28.3119512 L163.516797,28.3119512 L163.516797,28.3119512 L163.516797,28.3119512 Z M163.516797,23.3195122 C161.853137,23.3195122 160.594248,24.6087805 160.594248,26.2529268 C160.594248,27.9468293 161.853137,29.2682927 163.516797,29.2682927 C165.181176,29.2682927 166.439346,27.9468293 166.439346,26.2529268 C166.439346,24.6087805 165.181176,23.3195122 163.516797,23.3195122 L163.516797,23.3195122 Z" id="Fill-16"></path>
                <path d="M168.071373,23.4160976 L169.895359,23.4160976 C170.507908,23.4160976 170.786863,23.4643902 171.033464,23.5792683 C171.599281,23.837561 171.958039,24.3885366 171.958039,25.1509756 C171.958039,25.8402439 171.599281,26.4804878 171.00183,26.7226829 L171.00183,26.7402439 C171.00183,26.7402439 171.081634,26.82 171.193072,27.0226829 L172.35634,29.1709756 L171.208889,29.1709756 L170.086601,27.0226829 L169.098758,27.0226829 L169.098758,29.1709756 L168.071373,29.1709756 L168.071373,23.4160976 L168.071373,23.4160976 L168.071373,23.4160976 L168.071373,23.4160976 Z M170.022614,26.1146341 C170.572614,26.1146341 170.914118,25.7831707 170.914118,25.2080488 C170.914118,24.6563415 170.683333,24.3160976 169.879542,24.3160976 L169.098758,24.3160976 L169.098758,26.1146341 L170.022614,26.1146341 L170.022614,26.1146341 Z" id="Fill-17"></path>
                <path d="M174.131438,23.4168293 L174.131438,29.1709756 L177.643529,29.1709756 L177.643529,28.2709756 L175.158824,28.2709756 L175.158824,26.7234146 L177.061895,26.7234146 L177.061895,25.8234146 L175.158824,25.8234146 L175.158824,24.3153659 L177.516275,24.3153659 L177.516275,23.4168293 L174.131438,23.4168293" id="Fill-18"></path>
                <path d="M179.363268,23.4168293 L179.363268,29.1709756 L180.389935,29.1709756 L180.389935,26.844878 L182.261373,26.844878 L182.261373,25.944878 L180.389935,25.944878 L180.389935,24.3153659 L182.612222,24.3153659 L182.612222,23.4168293 L179.363268,23.4168293" id="Fill-19"></path>
                <path d="M184.379412,23.4160976 L186.203399,23.4160976 C186.815948,23.4160976 187.094902,23.4643902 187.342941,23.5792683 C187.90732,23.837561 188.266078,24.3885366 188.266078,25.1509756 C188.266078,25.8402439 187.90732,26.4804878 187.309869,26.7226829 L187.309869,26.7402439 C187.309869,26.7402439 187.389673,26.82 187.501111,27.0226829 L188.664379,29.1709756 L187.516928,29.1709756 L186.394641,27.0226829 L185.406797,27.0226829 L185.406797,29.1709756 L184.379412,29.1709756 L184.379412,23.4160976 L184.379412,23.4160976 L184.379412,23.4160976 L184.379412,23.4160976 Z M186.330654,26.1146341 C186.880654,26.1146341 187.223595,25.7831707 187.223595,25.2080488 C187.223595,24.6563415 186.992092,24.3160976 186.187582,24.3160976 L185.406797,24.3160976 L185.406797,26.1146341 L186.330654,26.1146341 L186.330654,26.1146341 Z" id="Fill-20"></path>
                <path d="M192.838627,28.3119512 C191.803333,28.3119512 190.975098,27.4360976 190.975098,26.2529268 C190.975098,25.1180488 191.803333,24.275122 192.838627,24.275122 C193.873203,24.275122 194.702157,25.1180488 194.702157,26.2529268 C194.702157,27.4360976 193.873203,28.3119512 192.838627,28.3119512 L192.838627,28.3119512 L192.838627,28.3119512 L192.838627,28.3119512 Z M192.838627,23.3195122 C191.174967,23.3195122 189.916078,24.6087805 189.916078,26.2529268 C189.916078,27.9468293 191.174967,29.2682927 192.838627,29.2682927 C194.503007,29.2682927 195.761176,27.9468293 195.761176,26.2529268 C195.761176,24.6087805 194.503007,23.3195122 192.838627,23.3195122 L192.838627,23.3195122 Z" id="Fill-21"></path>
                <path d="M197.473007,23.4160976 L198.500392,23.4160976 L200.642157,26.7402439 C200.857843,27.0717073 201.112353,27.6307317 201.112353,27.6307317 L201.12817,27.6307317 C201.12817,27.6307317 201.072092,27.0797561 201.072092,26.7402439 L201.072092,23.4160976 L202.092288,23.4160976 L202.092288,29.1709756 L201.072092,29.1709756 L198.930327,25.8563415 C198.716078,25.5241463 198.46085,24.9643902 198.46085,24.9643902 L198.445033,24.9643902 C198.445033,24.9643902 198.500392,25.5153659 198.500392,25.8563415 L198.500392,29.1709756 L197.473007,29.1709756 L197.473007,23.4160976" id="Fill-22"></path>
                <path d="M203.571895,23.4168293 L203.571895,24.3153659 L205.428235,24.3153659 L205.428235,29.1709756 L206.45634,29.1709756 L206.45634,24.3153659 L208.311242,24.3153659 L208.311242,23.4168293 L203.571895,23.4168293" id="Fill-23"></path>
                <path d="M209.703856,27.6958537 C209.703856,27.6958537 210.317124,28.3039024 211.113725,28.3039024 C211.544379,28.3039024 211.934771,28.0770732 211.934771,27.6065854 C211.934771,26.5770732 209.266013,26.7563415 209.266013,24.9885366 C209.266013,24.0321951 210.078431,23.3187805 211.161895,23.3187805 C212.276275,23.3187805 212.849281,23.934878 212.849281,23.934878 L212.403529,24.7858537 C212.403529,24.7858537 211.862876,24.2831707 211.153987,24.2831707 C210.675882,24.2831707 210.301307,24.5678049 210.301307,24.972439 C210.301307,25.9939024 212.961438,25.7429268 212.961438,27.582439 C212.961438,28.4985366 212.276275,29.267561 211.098627,29.267561 C209.839739,29.267561 209.146667,28.482439 209.146667,28.482439 L209.703856,27.6958537" id="Fill-24"></path>
                <path d="M12.8815033,2.22878049 C12.0432026,0.916097561 10.3896078,0.13097561 8.45849673,0.13097561 C5.59346405,0.13097561 2.83124183,2.13292683 2.29993464,4.59439024 C1.71326797,7.48243902 3.75941176,8.78341463 5.56542484,9.93219512 C6.8875817,10.7736585 8.02928105,11.4995122 7.77836601,12.6804878 C7.61013072,13.4985366 6.51156863,14.2704878 5.5172549,14.2704878 C4.61281046,14.2704878 3.9427451,13.9843902 3.40496732,13.3653659 C3.23026144,13.187561 3.09150327,12.9680488 2.94627451,12.7360976 C2.90026144,12.6629268 2.85424837,12.5897561 2.80607843,12.5158537 L2.7672549,12.4580488 L0.0373856209,14.0414634 L0,14.0634146 L0,14.1065854 C0,14.1804878 0.138039216,14.5426829 0.140196078,14.5492683 C0.918104575,16.3836585 2.5220915,17.3129268 4.90901961,17.3129268 C7.9451634,17.3129268 10.7533987,15.2619512 11.3026797,12.642439 C11.8835948,9.88317073 9.87267974,8.56756098 8.09830065,7.40634146 C6.74163399,6.51878049 5.56973856,5.75195122 5.82496732,4.52414634 C5.98673203,3.80268293 6.96379085,3.17121951 7.91712418,3.17121951 C8.62313725,3.17121951 9.24431373,3.38487805 9.76555556,3.81 C10.0330065,4.01414634 10.3040523,4.25487805 10.5700654,4.52560976 L10.6167974,4.57243902 L13.0339216,2.63926829 L13.0619608,2.61658537 L13.0619608,2.58 C13.0619608,2.51487805 12.9447712,2.29097561 12.8815033,2.22878049" id="Fill-26"></path>
                <path d="M19.8057516,14.244878 C19.1673203,14.244878 18.6130065,14.0136585 18.2470588,13.5936585 C17.866732,13.157561 17.7020915,12.5385366 17.7826144,11.8514634 C17.9134641,10.8621951 18.1305882,9.7704878 18.2477778,9.18365854 C18.2815686,9.01097561 18.3088889,8.87634146 18.3218301,8.79804878 C18.3498693,8.69268293 18.3915686,8.50756098 18.4447712,8.26609756 C18.5799346,7.65585366 18.8064052,6.63512195 19.0997386,5.66560976 C19.4951634,4.25853659 20.7317647,3.27658537 22.1064052,3.27658537 C22.7304575,3.27658537 23.2811765,3.50780488 23.6564706,3.92707317 C24.0475817,4.36609756 24.2280392,4.98585366 24.1633333,5.67365854 C24.0979085,6.47121951 23.8362092,7.85926829 23.6233987,8.76365854 C23.4637908,9.54365854 23.1546405,10.9836585 22.8814379,11.8521951 C22.4162745,13.2387805 21.1228758,14.244878 19.8057516,14.244878 L19.8057516,14.244878 L19.8057516,14.244878 L19.8057516,14.244878 Z M26.588366,1.74146341 C25.6882353,0.725121951 24.3495425,0.165365854 22.8203268,0.165365854 L22.7484314,0.165365854 C21.434902,0.165365854 20.004902,0.758780488 19.0580392,1.68804878 C19.0041176,1.23878049 18.7603922,0.719268293 18.5871242,0.517317073 C18.558366,0.459512195 18.4569935,0.362195122 18.3175163,0.231219512 C18.2822876,0.198292683 18.2528105,0.170487805 18.2348366,0.152195122 L18.1938562,0.110487805 L15.2677124,1.92 L15.2677124,1.96243902 C15.2677124,1.98731707 15.2784967,2.01804878 15.3223529,2.13658537 C15.3503922,2.20902439 15.4014379,2.34439024 15.4028758,2.37585366 L15.4237255,2.44463415 C15.7213725,3.21804878 15.9018301,3.68414634 15.5747059,5.28512195 L12.2215033,21.0519512 L12.1970588,21.1660976 L15.9075817,20.3378049 L15.9543137,20.3268293 L16.7688889,16.2856098 C17.2980392,16.9309756 18.2377124,17.3560976 19.1622876,17.3560976 L19.2334641,17.3560976 C22.3113072,17.3560976 25.3503268,15.0841463 26.3022222,12.0709756 C26.5646405,11.2126829 26.8687582,9.97463415 27.1160784,8.76219512 C27.3612418,7.76195122 27.5927451,6.4295122 27.6926797,5.44682927 C27.8371895,4.02512195 27.4453595,2.70878049 26.588366,1.74146341 L26.588366,1.74146341 Z" id="Fill-28"></path>
                <path d="M39.7315686,0.377560976 C39.7157516,0.376829268 39.6798039,0.368780488 39.6438562,0.361463415 C39.5964052,0.351219512 39.5633333,0.344634146 39.5396078,0.342439024 C39.0535948,0.155121951 38.5014379,0.13097561 38.0736601,0.13097561 C36.8766013,0.13097561 35.5393464,0.667317073 34.4702614,1.5702439 C34.3933333,1.14585366 34.1330719,0.684878049 33.9490196,0.466829268 C33.9101961,0.428780488 33.8188889,0.346829268 33.738366,0.274390244 C33.675817,0.21804878 33.6197386,0.168292683 33.6046405,0.152926829 L33.5636601,0.111219512 L30.6152288,1.89804878 L30.579281,1.92 L30.579281,1.96243902 C30.579281,1.9895122 30.5907843,2.01878049 30.6360784,2.12926829 C30.6633987,2.19512195 30.7144444,2.31878049 30.7166013,2.3495122 L30.7259477,2.38682927 C31.0300654,3.17560976 31.2306536,3.69731707 30.8920261,5.31878049 L28.4058824,17.2287805 L28.3864706,17.3202439 L31.9553595,17.3202439 L33.6930719,8.9004878 C33.9655556,7.75463415 34.4472549,5.8997561 34.4530065,5.87780488 C34.6399346,5.00487805 35.0490196,4.32219512 35.6658824,3.8502439 C36.174183,3.48146341 36.6796078,3.30219512 37.210915,3.30219512 C37.4812418,3.30219512 37.7120261,3.35487805 37.9370588,3.46902439 L37.9701307,3.47780488 C37.9902614,3.47853659 38.0492157,3.5195122 38.0901961,3.56121951 L38.1613725,3.63365854 L39.7962745,0.48804878 L39.8487582,0.382682927 L39.7315686,0.377560976" id="Fill-29"></path>
                <path d="M44.6161438,7.6704878 C44.3580392,7.6697561 44.1056863,7.66463415 43.8648366,7.6595122 L42.9050327,7.65439024 C42.9395425,7.51829268 42.9740523,7.38292683 43.0071242,7.24829268 C43.1602614,6.63731707 43.3047712,6.06 43.4909804,5.54414634 C43.9158824,4.1802439 45.3451634,3.11195122 46.7442484,3.11195122 C47.5372549,3.11195122 48.1138562,3.33073171 48.4582353,3.76243902 C48.7695425,4.15317073 48.8701961,4.71146341 48.7415033,5.33341463 C48.3086928,7.39243902 46.4135294,7.6704878 44.6161438,7.6704878 L44.6161438,7.6704878 L44.6161438,7.6704878 L44.6161438,7.6704878 Z M51.5540523,1.81682927 C50.6812418,0.713414634 49.1944444,0.13097561 47.253268,0.13097561 C44.0869935,0.13097561 41.0479739,2.34439024 40.0270588,5.39268293 C39.7236601,6.2495122 39.2800654,8.11756098 39.1089542,9.02707317 C38.909085,10.0053659 38.7746405,10.9836585 38.6330065,12.0702439 C38.4611765,13.434878 38.8242484,14.7160976 39.6553595,15.6760976 C40.5979085,16.7663415 42.0437255,17.3670732 43.7260784,17.3670732 C45.8915686,17.3670732 48.0441176,16.4180488 49.3439869,14.8902439 L49.3806536,14.8470732 L48.0843791,12.8334146 L48.0218301,12.8839024 C47.709085,13.1297561 47.4279739,13.3082927 47.1777778,13.4670732 C46.3028105,14.0619512 45.4530065,14.3158537 44.3379085,14.3158537 C43.6599346,14.3026829 43.0998693,14.0597561 42.7195425,13.6134146 C42.2982353,13.1195122 42.1113072,12.3878049 42.2054902,11.6019512 C42.2328105,11.2426829 42.3277124,10.7407317 42.3622222,10.5687805 L44.1667974,10.602439 C48.8098039,10.602439 51.527451,8.82804878 52.2428105,5.3304878 C52.5296732,3.98853659 52.2852288,2.7402439 51.5540523,1.81682927 L51.5540523,1.81682927 Z" id="Fill-30"></path>
                <path d="M59.0994771,7.6704878 C58.8413725,7.6697561 58.5883007,7.66463415 58.347451,7.6595122 L57.3876471,7.65439024 C57.4228758,7.51829268 57.4566667,7.38292683 57.4897386,7.24829268 C57.6435948,6.63731707 57.7881046,6.06 57.9735948,5.54414634 C58.3992157,4.1802439 59.8284967,3.11195122 61.2275817,3.11195122 C62.0205882,3.11195122 62.5971895,3.33073171 62.9415686,3.76243902 C63.2528758,4.15317073 63.3535294,4.71146341 63.2241176,5.33341463 C62.7913072,7.39243902 60.8968627,7.6704878 59.0994771,7.6704878 L59.0994771,7.6704878 L59.0994771,7.6704878 L59.0994771,7.6704878 Z M66.0366667,1.81682927 C65.1645752,0.713414634 63.6770588,0.13097561 61.7358824,0.13097561 C58.5703268,0.13097561 55.5313072,2.34439024 54.5103922,5.39268293 C54.2062745,6.2495122 53.7633987,8.11756098 53.5922876,9.02707317 C53.3924183,10.0053659 53.2579739,10.9836585 53.1156209,12.0702439 C52.9437908,13.434878 53.3075817,14.7160976 54.1379739,15.6760976 C55.0812418,16.7663415 56.5263399,17.3670732 58.2094118,17.3670732 C60.374183,17.3670732 62.527451,16.4180488 63.8273203,14.8902439 L63.8639869,14.8470732 L62.5677124,12.8334146 L62.5044444,12.8839024 C62.1924183,13.1297561 61.9105882,13.3082927 61.6603922,13.4670732 C60.7854248,14.0619512 59.9363399,14.3158537 58.8205229,14.3158537 C58.142549,14.3026829 57.5832026,14.0597561 57.2021569,13.6134146 C56.7815686,13.1195122 56.5946405,12.3878049 56.6888235,11.6019512 C56.7154248,11.2426829 56.8110458,10.7407317 56.8448366,10.5687805 L58.6501307,10.602439 C63.2931373,10.602439 66.0107843,8.82804878 66.7254248,5.3304878 C67.0130065,3.98853659 66.7685621,2.7402439 66.0366667,1.81682927 L66.0366667,1.81682927 Z" id="Fill-31"></path>
                <path d="M80.2446405,2.2602439 C80.2360131,2.24707317 80.2281046,2.2397561 80.2295425,2.2404878 L80.2295425,2.21853659 L80.2180392,2.2002439 C79.3783007,0.847317073 78.0791503,0.131707317 76.4636601,0.131707317 C73.5756209,0.131707317 70.7824837,2.28365854 69.8226797,5.24926829 C69.5135294,6.19463415 69.1094771,7.77804878 68.9405229,8.70365854 C68.6457516,9.97756098 68.4767974,11.237561 68.3632026,12.192439 C68.1820261,13.6009756 68.5314379,14.8968293 69.3460131,15.8414634 C70.1814379,16.8095122 71.4467974,17.3436585 72.9069935,17.3436585 C74.8143791,17.3436585 76.6865359,16.3909756 78.0539869,14.7168293 C78.069085,14.6860976 78.0920915,14.6560976 78.1143791,14.6246341 C78.1424183,14.5865854 78.1704575,14.5485366 78.1884314,14.5104878 L78.2157516,14.4556098 L76.7620261,13.307561 L76.7160131,13.3543902 C76.3378431,13.74 76.0071242,14.0334146 75.6735294,14.28 C74.9603268,14.8412195 74.1781046,15.125122 73.3477124,15.125122 C72.5417647,15.125122 71.8328758,14.8273171 71.3526144,14.2865854 C70.8824183,13.7568293 70.666732,13.0317073 70.745098,12.2421951 C70.8177124,11.2814634 71.17,9.41560976 71.2857516,8.80609756 C71.6459477,7.22341463 71.9414379,6.08926829 72.1643137,5.43585366 C72.7279739,3.71560976 74.4743137,2.31585366 76.056732,2.31585366 C76.6117647,2.31585366 77.1675163,2.51926829 77.7132026,2.92756098 C77.9727451,3.1595122 78.240915,3.3995122 78.4716993,3.7002439 L78.5155556,3.75731707 L80.2964052,2.45121951 L80.2964052,2.41243902 C80.2964052,2.35170732 80.2662092,2.29902439 80.2446405,2.2602439" id="Fill-32"></path>
                <path d="M90.7133333,5.33634146 C90.6464706,6.23121951 90.3373203,7.86439024 90.1388889,8.74097561 C89.9749673,9.60658537 89.6047059,11.2339024 89.2948366,12.1426829 C88.7297386,13.835122 86.9898693,15.1609756 85.3341176,15.1609756 C84.5411111,15.1609756 83.8271895,14.85 83.3239216,14.285122 C82.8199346,13.7195122 82.5855556,12.9578049 82.6646405,12.1390244 C82.7264706,11.3553659 82.986732,9.93219512 83.159281,8.9904878 L83.2045752,8.73731707 L83.2628105,8.49 C83.4799346,7.56804878 83.8070588,6.17634146 84.0831373,5.33268293 C84.6503922,3.6695122 86.4269281,2.31585366 88.0438562,2.31585366 C88.8311111,2.31585366 89.5443137,2.62902439 90.0504575,3.1997561 C90.5573203,3.7704878 90.7931373,4.52853659 90.7133333,5.33634146 C90.7133333,5.33634146 90.7931373,4.52853659 90.7133333,5.33634146 L90.7133333,5.33634146 L90.7133333,5.33634146 Z M91.9887582,1.60463415 C91.1389542,0.654878049 89.8944444,0.131707317 88.4845752,0.131707317 C85.5469281,0.131707317 82.6977124,2.29902439 81.7091503,5.28365854 C81.3985621,6.19390244 81.022549,7.8395122 80.8262745,8.7395122 C80.6184967,9.73463415 80.440915,10.8636585 80.2820261,12.192439 C80.1051634,13.5709756 80.4581699,14.8529268 81.2763399,15.8004878 C82.1340523,16.7956098 83.4195425,17.3436585 84.8948366,17.3436585 C87.8856863,17.3436585 90.7845098,15.1419512 91.6379085,12.2239024 C92.0103268,10.9660976 92.2986275,9.82463415 92.5193464,8.73731707 C92.7256863,7.82780488 92.9945752,6.21365854 93.0952288,5.28146341 C93.2275163,3.85609756 92.8342484,2.55 91.9887582,1.60463415 L91.9887582,1.60463415 Z" id="Fill-33"></path>
                <path d="M113.816209,1.35731707 C113.115229,0.555365854 112.11085,0.132439024 110.91451,0.132439024 L110.846209,0.132439024 C109.395359,0.164634146 107.492288,1.00902439 106.579935,2.56536585 C105.894052,0.950487805 104.728627,0.13097561 103.114575,0.13097561 C103.082222,0.13097561 103.048431,0.131707317 103.014641,0.132439024 C101.745686,0.164634146 100.558693,0.806341463 99.3903922,2.09268293 C99.330719,1.32731707 98.9252288,0.60804878 98.7900654,0.46902439 C98.7886275,0.468292683 98.6570588,0.333658537 98.5930719,0.235609756 L98.5556863,0.177804878 L96.5404575,1.33317073 L96.736732,1.81097561 L96.7647712,1.89292683 C97.0264706,2.65682927 97.2335294,3.25902439 96.8718954,5.00121951 L94.3196078,17.2221951 L94.3001961,17.3129268 L96.7288235,17.3129268 L98.465817,8.93268293 C98.7720915,7.57829268 99.2868627,5.44317073 99.2926144,5.42121951 C99.7376471,3.47195122 100.944052,2.35463415 102.601961,2.35463415 C103.201569,2.35463415 103.676078,2.54707317 104.009673,2.92682927 C104.471242,3.45146341 104.651699,4.31780488 104.529477,5.43512195 C104.494967,6.11926829 104.19732,7.4795122 104.019739,8.24121951 L104.016863,8.25146341 C104.015425,8.25731707 104.014706,8.26170732 104.013987,8.26682927 L104.014706,8.26682927 C103.985229,8.41902439 103.745817,9.58756098 102.150458,17.2221951 L102.131765,17.3129268 L104.559673,17.3129268 L104.571895,17.2536585 C106.203922,9.50926829 106.49366,8.13439024 106.528889,7.8702439 L106.540392,7.87170732 L106.529608,7.86878049 C106.529608,7.86731707 106.529608,7.86585366 106.530327,7.86439024 L106.54183,7.86658537 L107.12634,5.42121951 C107.570654,3.47195122 108.777059,2.35463415 110.434967,2.35463415 C111.035294,2.35463415 111.507647,2.54707317 111.841961,2.92682927 C112.303529,3.45146341 112.483987,4.31780488 112.361765,5.43512195 C112.328693,6.07756098 112.066993,7.31560976 111.852026,8.24121951 L111.850588,8.25219512 C111.848431,8.25731707 111.847712,8.26243902 111.846275,8.26682927 L111.847712,8.26682927 C111.817516,8.41902439 111.578105,9.58829268 109.982745,17.2221951 L109.963333,17.3129268 L112.391242,17.3129268 L114.197974,8.68390244 C114.243268,8.45853659 114.299346,8.18926829 114.35902,7.89804878 C114.530131,7.07195122 114.742941,6.04243902 114.820588,5.41317073 C115.010392,3.75439024 114.653072,2.31365854 113.816209,1.35731707" id="Fill-34"></path>
                <path d="M135.646536,1.35804878 C134.944837,0.556097561 133.941895,0.132439024 132.744837,0.132439024 L132.675817,0.132439024 C131.225686,0.164634146 129.322614,1.0097561 128.410261,2.56536585 C127.722941,0.950487805 126.558235,0.13097561 124.944902,0.13097561 C124.91183,0.13097561 124.878039,0.131707317 124.844248,0.132439024 C123.573856,0.164634146 122.387582,0.806341463 121.221438,2.09268293 C121.161765,1.32804878 120.755556,0.60804878 120.619673,0.46902439 C120.618954,0.467560976 120.486667,0.333658537 120.421961,0.235609756 L120.383856,0.177804878 L118.370065,1.33317073 L118.565621,1.81097561 L118.594379,1.89439024 C118.856797,2.65756098 119.063856,3.2604878 118.702222,5.00121951 L116.149216,17.2221951 L116.129804,17.3129268 L118.557712,17.3129268 L120.296144,8.93195122 C120.602418,7.57829268 121.11719,5.44317073 121.122941,5.42121951 C121.568693,3.47195122 122.77366,2.35463415 124.431569,2.35463415 C125.031895,2.35463415 125.505686,2.54707317 125.84,2.92682927 C126.30085,3.45146341 126.480588,4.31707317 126.359804,5.43512195 C126.324575,6.11853659 126.02549,7.48390244 125.850065,8.23902439 C125.848627,8.24560976 125.846471,8.25439024 125.843595,8.26682927 L125.840719,8.27780488 L125.842876,8.28 C125.803333,8.47829268 125.538758,9.76829268 123.980065,17.2221951 L123.960654,17.3129268 L126.390719,17.3129268 L126.402941,17.2536585 C128.036405,9.50195122 128.325425,8.13219512 128.359935,7.86878049 L128.371438,7.87097561 L128.359935,7.86731707 C128.360654,7.86658537 128.360654,7.86585366 128.360654,7.86439024 L128.372157,7.86658537 L128.955948,5.42121951 C129.400261,3.47195122 130.605948,2.35463415 132.263856,2.35463415 C132.864183,2.35463415 133.337255,2.54707317 133.671569,2.92682927 C134.133856,3.45146341 134.313595,4.31780488 134.192092,5.43512195 C134.156863,6.15292683 133.822549,7.63609756 133.680915,8.2404878 L133.679477,8.25146341 C133.67732,8.25731707 133.676601,8.26170732 133.675163,8.26682927 L133.673725,8.27560976 L133.674444,8.27780488 C133.637059,8.46731707 133.376797,9.73756098 131.812353,17.2221951 L131.79366,17.3129268 L134.220131,17.3129268 L136.027582,8.68390244 C136.072157,8.46 136.128235,8.19219512 136.187908,7.90463415 C136.35902,7.07560976 136.57183,6.04390244 136.649477,5.41317073 C136.840719,3.75512195 136.484118,2.31512195 135.646536,1.35804878" id="Fill-35"></path>
                <path d="M146.078562,2.31658537 C147.070719,2.31658537 147.833529,2.61878049 148.285033,3.19097561 C148.68549,3.69804878 148.814183,4.39536585 148.648824,5.15487805 C148.123268,7.71731707 145.92183,8.07073171 143.621895,8.07073171 C143.401176,8.07073171 143.18549,8.06780488 142.977712,8.06487805 C142.784314,8.06268293 142.598824,8.0597561 142.421242,8.0597561 L141.563529,8.0597561 C141.761961,7.15463415 142.025098,5.96195122 142.220654,5.33195122 C142.794379,3.61317073 144.453725,2.31658537 146.078562,2.31658537 C146.078562,2.31658537 144.453725,2.31658537 146.078562,2.31658537 L146.078562,2.31658537 L146.078562,2.31658537 Z M150.41098,1.68292683 C149.601438,0.668780488 148.255556,0.131707317 146.518562,0.131707317 C143.630523,0.131707317 140.838105,2.28439024 139.878301,5.25073171 C139.58281,6.15219512 139.102549,8.05317073 138.927124,9.01463415 C138.69634,10.0602439 138.560458,11.105122 138.428889,12.114878 L138.418824,12.1931707 C138.252745,13.6104878 138.616536,14.9121951 139.441176,15.8582927 C140.276601,16.8160976 141.527582,17.3436585 142.962614,17.3436585 C145.320784,17.3436585 147.491307,16.1260976 148.915556,14.0026829 L148.959412,13.9360976 L147.419412,13.0017073 L147.37915,13.0485366 C147.10451,13.3617073 146.837059,13.6331707 146.536536,13.9031707 C145.669477,14.6904878 144.496863,15.1595122 143.401176,15.1595122 C142.647712,15.1595122 141.96902,14.8646341 141.491634,14.327561 C140.98549,13.757561 140.752549,12.9812195 140.83451,12.1412195 C140.877647,11.7292683 140.945948,11.3231707 141.017843,10.8929268 C141.056667,10.667561 141.094771,10.44 141.13,10.2087805 L142.150196,10.2087805 C146.047647,10.2087805 150.158627,9.60804878 151.095425,5.15121951 C151.371503,3.81439024 151.128497,2.58292683 150.41098,1.68292683 L150.41098,1.68292683 Z" id="Fill-36"></path>
                <path d="M162.672745,0.311707317 C162.270131,0.185853659 161.828693,0.131707317 161.193137,0.131707317 C159.793333,0.166097561 158.382745,0.762439024 157.202941,1.81390244 C157.113072,1.22926829 156.707582,0.604390244 156.575294,0.470487805 C156.574575,0.46902439 156.441569,0.333658537 156.376144,0.235609756 L156.338039,0.179268293 L154.376013,1.26731707 L154.319216,1.2995122 L154.514052,1.81317073 C154.538497,1.90170732 154.564379,1.98658537 154.589542,2.07073171 C154.803791,2.7804878 154.988562,3.39439024 154.651373,5.01658537 L152.089739,17.2763415 L152.070327,17.3670732 L154.506144,17.3670732 L156.250327,8.95829268 C156.52281,7.67195122 157.038301,5.70585366 157.044052,5.68390244 C157.310784,4.56146341 157.807582,3.74634146 158.609935,3.11926829 C159.189412,2.66926829 159.855882,2.43146341 160.538889,2.43146341 C160.952288,2.43146341 161.249935,2.48487805 161.474967,2.5997561 L161.746013,2.73731707 L162.956732,0.490243902 L163.002026,0.407560976 L162.672745,0.311707317" id="Fill-37"></path>
                <path d="M173.520327,2.2602439 C173.514575,2.24926829 173.508824,2.2397561 173.508824,2.2397561 L173.505948,2.21853659 L173.494444,2.2002439 C172.656144,0.847317073 171.358431,0.131707317 169.740784,0.131707317 C166.854183,0.131707317 164.061046,2.28365854 163.099804,5.24926829 C162.789935,6.20341463 162.385882,7.78682927 162.217647,8.70365854 C161.922876,9.98121951 161.754641,11.2397561 161.641046,12.192439 C161.459869,13.6009756 161.809281,14.8968293 162.623856,15.8414634 C163.459281,16.8095122 164.723922,17.3436585 166.185556,17.3436585 C168.092941,17.3436585 169.965098,16.3909756 171.331111,14.7168293 C171.34549,14.6860976 171.369935,14.6560976 171.392222,14.6246341 C171.42098,14.5865854 171.447582,14.5485366 171.466993,14.5104878 L171.494314,14.4556098 L170.040588,13.307561 L169.994575,13.3543902 C169.617843,13.7370732 169.287843,14.0312195 168.950654,14.28 C168.248235,14.8331707 167.444444,15.125122 166.626275,15.125122 C165.819608,15.125122 165.110719,14.8273171 164.630458,14.2865854 C164.160261,13.7568293 163.944575,13.0309756 164.022941,12.2421951 C164.095556,11.285122 164.448562,9.41707317 164.564314,8.80609756 C164.92451,7.22341463 165.22,6.09 165.442157,5.43585366 C166.005098,3.71560976 167.751438,2.31585366 169.334575,2.31585366 C169.889608,2.31585366 170.444641,2.51926829 170.980261,2.91804878 L170.998235,2.93414634 C171.255621,3.16390244 171.520915,3.40243902 171.748824,3.7002439 L171.793399,3.75731707 L173.574248,2.45121951 L173.574248,2.41243902 C173.574248,2.35170732 173.543333,2.29902439 173.520327,2.2602439" id="Fill-38"></path>
                <path d="M181.368431,2.31658537 C182.361307,2.31658537 183.123399,2.61878049 183.574902,3.19097561 C183.975359,3.69804878 184.104052,4.39536585 183.938693,5.15487805 C183.413137,7.71731707 181.211699,8.07073171 178.911765,8.07073171 C178.691765,8.07073171 178.476078,8.06780488 178.268301,8.06487805 C178.074902,8.06268293 177.888693,8.0597561 177.71183,8.0597561 L176.854118,8.0597561 C177.052549,7.15463415 177.314967,5.96195122 177.510523,5.33195122 C178.084248,3.61317073 179.743595,2.31658537 181.368431,2.31658537 C181.368431,2.31658537 179.743595,2.31658537 181.368431,2.31658537 L181.368431,2.31658537 L181.368431,2.31658537 Z M185.701569,1.68292683 C184.892026,0.668780488 183.546144,0.131707317 181.808431,0.131707317 C178.920392,0.131707317 176.127974,2.28439024 175.16817,5.25073171 C174.87268,6.15219512 174.392418,8.05317073 174.217712,9.01463415 C173.986209,10.0602439 173.851046,11.105122 173.718758,12.114878 L173.709412,12.1931707 C173.542614,13.6104878 173.906405,14.9121951 174.731765,15.8582927 C175.56719,16.8160976 176.817451,17.3436585 178.252484,17.3436585 C180.611373,17.3436585 182.781895,16.1260976 184.205425,14.0026829 L184.25,13.9360976 L182.709281,13.0017073 L182.66902,13.0485366 C182.395098,13.3617073 182.126928,13.6331707 181.827124,13.9031707 C180.959346,14.6904878 179.786732,15.1595122 178.691765,15.1595122 C177.937582,15.1595122 177.259608,14.8646341 176.781503,14.327561 C176.275359,13.757561 176.042418,12.9812195 176.124379,12.1412195 C176.167516,11.7292683 176.235817,11.3231707 176.308431,10.8929268 C176.346536,10.667561 176.385359,10.44 176.419869,10.2087805 L177.440065,10.2087805 C181.337516,10.2087805 185.449216,9.60804878 186.386013,5.15121951 C186.662092,3.81439024 186.418366,2.58292683 185.701569,1.68292683 L185.701569,1.68292683 Z" id="Fill-39"></path>
                <path d="M189.497804,4.17873476 L188.641238,4.17873476 L189.354575,0.73742378 L188.366013,0.73742378 L188.520476,0 L191.356975,0 L191.202512,0.73742378 L190.211142,0.73742378 L190.211142,0.73742378 L189.497804,4.17873476 L189.497804,4.17873476 Z M193.300398,3.12404726 L194.847835,0 L196.035795,0 L195.167994,4.17873476 L194.381638,4.17873476 L194.788858,2.20083841 C194.888089,1.73018057 194.986383,1.31002471 195.083742,0.940358232 L195.0697,0.940358232 L193.471712,4.17873476 L192.682547,4.17873476 L192.511234,0.940358232 L192.5,0.940358232 C192.479405,1.108042 192.443832,1.32812364 192.39328,1.60060976 C192.342729,1.87309587 192.167672,2.73246228 191.868107,4.17873476 L191.095792,4.17873476 L191.963593,0 L193.098192,0 L193.289165,3.12404726 L193.289165,3.12404726 L193.300398,3.12404726 L193.300398,3.12404726 Z" id="TM"></path>
                <path d="M215.489334,25.2946361 L214.945204,25.2946361 L214.945204,23.1438167 L214.248366,23.1438167 L214.248366,22.6829268 L216.186172,22.6829268 L216.186172,23.1438167 L215.489334,23.1438167 L215.489334,23.1438167 L215.489334,25.2946361 L215.489334,25.2946361 Z M217.667611,25.2946361 L217.04976,23.2456412 L217.033963,23.2456412 C217.056196,23.6624687 217.067313,23.9405481 217.067313,24.0798876 L217.067313,25.2946361 L216.581106,25.2946361 L216.581106,22.6829268 L217.321825,22.6829268 L217.929145,24.6801162 L217.939677,24.6801162 L218.583857,22.6829268 L219.324576,22.6829268 L219.324576,25.2946361 L218.817306,25.2946361 L218.817306,24.0584508 C218.817306,24.000095 218.818184,23.9328081 218.819939,23.8565882 C218.821694,23.7803683 218.829593,23.5779123 218.843635,23.249214 L218.827838,23.249214 L218.166105,25.2946361 L218.166105,25.2946361 L217.667611,25.2946361 L217.667611,25.2946361 Z" id="TM"></path>
            </g>
        </g>
        <g id="logo" sketch:type="MSLayerGroup"></g>
    </g>
</svg>